<svg width="22" height="21" viewBox="0 0 22 21" fill="none" xmlns="http://www.w3.org/2000/svg">
<path d="M1 14.75C1 14.75 2.795 14 6 14C11 14 15 17 21 17M1 20H21M13.5 8.5L15.5 16M11.286 2L11 1M11.594 2.228C8.748 3.044 6.899 5.852 7.004 8.875C7.026 9.503 7.037 9.817 7.305 9.955C7.574 10.095 7.852 9.898 8.409 9.505L9.651 8.627C9.834 8.49614 10.0564 8.43223 10.281 8.446L13.198 8.633L15.636 6.91C15.8191 6.7795 16.0416 6.71594 16.266 6.73L17.788 6.827C18.441 6.869 18.768 6.89 18.929 6.639C19.09 6.388 18.959 6.116 18.696 5.572C17.386 2.87 14.456 1.407 11.594 2.228Z" stroke="#9747FF" stroke-width="1.5" stroke-linecap="round" stroke-linejoin="round"/>
</svg>
