<svg width="30" height="32" viewBox="0 0 30 32" fill="none" xmlns="http://www.w3.org/2000/svg">
<path d="M30 25.9048V27.4286H0V25.9048L3.33333 22.8571V13.7143C3.33333 8.99048 6.71667 4.83048 11.6667 3.48952C11.6667 3.33714 11.6667 3.2 11.6667 3.04762C11.6667 2.23934 12.0179 1.46417 12.643 0.892627C13.2681 0.321087 14.1159 0 15 0C15.8841 0 16.7319 0.321087 17.357 0.892627C17.9821 1.46417 18.3333 2.23934 18.3333 3.04762C18.3333 3.2 18.3333 3.33714 18.3333 3.48952C23.2833 4.83048 26.6667 8.99048 26.6667 13.7143V22.8571L30 25.9048ZM18.3333 28.9524C18.3333 29.7607 17.9821 30.5358 17.357 31.1074C16.7319 31.6789 15.8841 32 15 32C14.1159 32 13.2681 31.6789 12.643 31.1074C12.0179 30.5358 11.6667 29.7607 11.6667 28.9524" fill="#9747FF"/>
</svg>
