<svg width="24" height="21" viewBox="0 0 24 21" fill="none" xmlns="http://www.w3.org/2000/svg">
<path d="M8.79273 4.11325e-05C6.73091 -0.00998826 4.72364 1.81536 5.64 4.082H2.18182C1.60316 4.082 1.04821 4.29334 0.63904 4.66951C0.22987 5.04569 0 5.55589 0 6.08788V8.09376C0 8.35976 0.114935 8.61486 0.31952 8.80295C0.524105 8.99103 0.801582 9.0967 1.09091 9.0967H10.9091V6.08788H13.0909V9.0967H22.9091C23.1984 9.0967 23.4759 8.99103 23.6805 8.80295C23.8851 8.61486 24 8.35976 24 8.09376V6.08788C24 5.55589 23.7701 5.04569 23.361 4.66951C22.9518 4.29334 22.3968 4.082 21.8182 4.082H18.36C19.6364 0.802393 14.8364 -1.5144 12.6218 1.31389L12 2.07613L11.3782 1.29383C10.6909 0.401217 9.74182 0.0100705 8.79273 4.11325e-05ZM8.72727 2.07613C9.69818 2.07613 10.1891 3.1593 9.50182 3.79115C8.81455 4.423 7.63636 3.97168 7.63636 3.07906C7.63636 2.81307 7.7513 2.55797 7.95588 2.36988C8.16047 2.18179 8.43795 2.07613 8.72727 2.07613ZM15.2727 2.07613C16.2436 2.07613 16.7345 3.1593 16.0473 3.79115C15.36 4.423 14.1818 3.97168 14.1818 3.07906C14.1818 2.81307 14.2968 2.55797 14.5013 2.36988C14.7059 2.18179 14.9834 2.07613 15.2727 2.07613ZM1.09091 10.0996V18.1232C1.09091 18.6551 1.32078 19.1653 1.72995 19.5415C2.13912 19.9177 2.69407 20.129 3.27273 20.129H20.7273C21.3059 20.129 21.8609 19.9177 22.2701 19.5415C22.6792 19.1653 22.9091 18.6551 22.9091 18.1232V10.0996H13.0909V18.1232H10.9091V10.0996H1.09091Z" fill="#9747FF"/>
</svg>
