<svg width="30" height="30" viewBox="0 0 30 30" fill="none" xmlns="http://www.w3.org/2000/svg">
<path d="M5 5H12.5V12.5H5V5ZM25 5V12.5H17.5V5H25ZM17.5 18.75H20V16.25H17.5V13.75H20V16.25H22.5V13.75H25V16.25H22.5V18.75H25V22.5H22.5V25H20V22.5H16.25V25H13.75V20H17.5V18.75ZM20 18.75V22.5H22.5V18.75H20ZM5 25V17.5H12.5V25H5ZM7.5 7.5V10H10V7.5H7.5ZM20 7.5V10H22.5V7.5H20ZM7.5 20V22.5H10V20H7.5ZM5 13.75H7.5V16.25H5V13.75ZM11.25 13.75H16.25V18.75H13.75V16.25H11.25V13.75ZM13.75 7.5H16.25V12.5H13.75V7.5ZM2.5 2.5V7.5H0V2.5C0 1.83696 0.263392 1.20107 0.732233 0.732233C1.20107 0.263392 1.83696 0 2.5 0L7.5 0V2.5H2.5ZM27.5 0C28.163 0 28.7989 0.263392 29.2678 0.732233C29.7366 1.20107 30 1.83696 30 2.5V7.5H27.5V2.5H22.5V0H27.5ZM2.5 22.5V27.5H7.5V30H2.5C1.83696 30 1.20107 29.7366 0.732233 29.2678C0.263392 28.7989 0 28.163 0 27.5V22.5H2.5ZM27.5 27.5V22.5H30V27.5C30 28.163 29.7366 28.7989 29.2678 29.2678C28.7989 29.7366 28.163 30 27.5 30H22.5V27.5H27.5Z" fill="#9747FF"/>
</svg>
