<svg width="24" height="24" viewBox="0 0 24 24" fill="none" xmlns="http://www.w3.org/2000/svg">
<path d="M3.6 0H12C12.96 0 13.872 0.384 14.544 1.056C15.216 1.728 15.6 2.64 15.6 3.6V4.8H13.2V2.4H2.4V10.8H8.4V16.8H7.2L3.6 20.4H2.4V18L3.6 16.8C2.64 16.8 1.728 16.416 1.056 15.744C0.384 15.072 0 14.16 0 13.2V3.6C0 2.64 0.384 1.728 1.056 1.056C1.728 0.384 2.64 0 3.6 0ZM4.452 12.348C4.2 12.132 3.924 12 3.6 12C3.288 12 3 12.132 2.748 12.348C2.532 12.6 2.4 12.888 2.4 13.2C2.4 13.524 2.532 13.8 2.748 14.052C3 14.28 3.288 14.4 3.6 14.4C3.924 14.4 4.2 14.28 4.452 14.052C4.68 13.8 4.8 13.524 4.8 13.2C4.8 12.888 4.68 12.6 4.452 12.348ZM10.8 10.8C10.8 8.808 12 7.2 15.6 7.2H19.2C22.8 7.2 24 8.808 24 10.8V19.2C24 20.088 23.52 20.868 22.8 21.276V22.8C22.8 23.46 22.26 24 21.6 24C20.94 24 20.4 23.46 20.4 22.8V21.6H14.4V22.8C14.4 23.46 13.86 24 13.2 24C12.54 24 12 23.46 12 22.8V21.276C11.28 20.868 10.8 20.088 10.8 19.2V10.8ZM13.2 9.6V14.4H21.6V9.6H13.2ZM14.4 19.2C15.06 19.2 15.6 18.66 15.6 18C15.6 17.34 15.06 16.8 14.4 16.8C13.74 16.8 13.2 17.34 13.2 18C13.2 18.66 13.74 19.2 14.4 19.2ZM21.6 18C21.6 17.34 21.06 16.8 20.4 16.8C19.74 16.8 19.2 17.34 19.2 18C19.2 18.66 19.74 19.2 20.4 19.2C21.06 19.2 21.6 18.66 21.6 18Z" fill="#9747FF"/>
</svg>
